# xmcd
#
# Track frame offsets:
#   150
#   13220
#   29221
#   43919
#   57487
#   74397
#   89797
#   108845
#   122683
#   136635
#   156233
#   170953
#   185943
#   196913
#   217991
#   230131
#   230581
#   245213
#   255333
#   270176
#   286359
#   296890
#   313160
#
# Disc length: 4362 seconds
#
# Revision: 0
# Processed by: cddbd v1.5.2PL0 Copyright (c) Steve Scherf et al.
# Submitted via: uFREEDB 1.6.2
#
DISCID=73110817
DTITLE=k0 - po
DYEAR=1900
DGENRE=Children's Music
TTITLE0=x11
TTITLE1=x22
TTITLE2=x33
TTITLE3=x44
TTITLE4=x55
TTITLE5=x66
TTITLE6=x77
TTITLE7=x88x99
TTITLE8=x00
TTITLE9=x111
TTITLE10=x222
TTITLE11=x333
TTITLE12=c444
TTITLE13=x555
TTITLE14=x666
TTITLE15=x777
TTITLE16=x888
TTITLE17=x999
TTITLE18=x1111
TTITLE19=x2222
TTITLE20=x3333
TTITLE21=x4444
TTITLE22=x55555
EXTD=
EXTT0=
EXTT1=
EXTT2=
EXTT3=
EXTT4=
EXTT5=
EXTT6=
EXTT7=
EXTT8=
EXTT9=
EXTT10=
EXTT11=
EXTT12=
EXTT13=
EXTT14=
EXTT15=
EXTT16=
EXTT17=
EXTT18=
EXTT19=
EXTT20=
EXTT21=
EXTT22=
PLAYORDER=
